<svg xmlns="http://www.w3.org/2000/svg"  viewBox="0 0 30 30" width="480px" height="480px" baseProfile="basic"><path fill="#b6c9d6" d="M28.5,15c0,7.515-6.123,13.5-13.5,13.5C7.624,28.5,1.5,22.515,1.5,15S7.485,1.5,15,1.5 S28.5,7.485,28.5,15z"/><path fill="#fff" d="M24.317,14.522c0,1.631-0.843,3.898-2.227,5.024c-1.119,0.912-2.597,1.199-4.268,1.29 c0.628,0.381,1.046,1.072,1.046,1.86v5.402c-1.053,0.262-2.15,0.403-3.28,0.403c-1.119,0-2.212-0.138-3.258-0.4v-3.549 c-0.454,0.142-1.05,0.225-1.816,0.185c-2.543-0.134-2.906-1.678-3.313-2.768c-0.41-1.09-1.682-1.228-1.5-1.678 c0.878-0.301,1.567-0.014,2.033,0.341c0.37,0.282,0.628,0.68,0.8,1.111c0.197,0.493,0.721,1.316,2.023,1.316 c0.919,0,1.464-0.214,1.776-0.425c0.018-0.77,0.44-1.438,1.057-1.805c-1.773-0.113-3.327-0.447-4.472-1.442 c-1.271-1.104-2.038-3.309-2.038-4.864c0-1.297,0.534-2.895,1.449-3.901c0.029-0.029,0.055-0.062,0.091-0.091 C8.211,9.898,7.967,8.648,8.559,7.119c1.762-0.033,3.153,0.93,3.72,1.395c1.024-0.236,2.143-0.349,3.32-0.349 c1.206,0,2.358,0.105,3.4,0.349c0.567-0.465,1.962-1.428,3.72-1.391c0.618,1.591,0.331,2.881,0.116,3.484 C23.772,11.685,24.317,13.214,24.317,14.522z"/><path fill="#788b9c" d="M15,29C7.28,29,1,22.72,1,15C1,7.149,7.149,1,15,1s14,6.149,14,14C29,22.72,22.72,29,15,29z M15,2C7.71,2,2,7.71,2,15c0,7.168,5.832,13,13,13s13-5.832,13-13C28,7.71,22.29,2,15,2z"/></svg>